<svg style="display: none;" aria-hidden="true" xmlns="http://www.w3.org/2000/svg" xmlns:xlink="http://www.w3.org/1999/xlink"><symbol viewBox="0 0 32 32" id="svg-css"><path fill="#1572b6" d="M5.902 27.201L3.656 2 28.344 2 26.095 27.197 15.985 30 5.902 27.201z"/><path fill="#33a9dc" d="M16 27.858L24.17 25.593 26.092 4.061 16 4.061 16 27.858z"/><path fill="#fff" d="M16 13.191L20.09 13.191 20.372 10.026 16 10.026 16 6.935 16.011 6.935 23.75 6.935 23.676 7.764 22.917 16.282 16 16.282 16 13.191z"/><path fill="#ebebeb" d="M16.019 21.218L16.005 21.222 12.563 20.292 12.343 17.827 10.67 17.827 9.24 17.827 9.673 22.68 16.004 24.438 16.019 24.434 16.019 21.218z"/><path fill="#fff" d="M19.827 16.151L19.455 20.29 16.008 21.22 16.008 24.436 22.344 22.68 22.391 22.158 22.928 16.151 19.827 16.151z"/><path fill="#ebebeb" d="M16.011 6.935L16.011 8.855 16.011 10.018 16.011 10.026 8.555 10.026 8.555 10.026 8.545 10.026 8.483 9.331 8.342 7.764 8.268 6.935 16.011 6.935zM16 13.191L16 15.111 16 16.274 16 16.282 12.611 16.282 12.611 16.282 12.601 16.282 12.539 15.587 12.399 14.02 12.325 13.191 16 13.191z"/></symbol><symbol viewBox="0 0 256 256" preserveAspectRatio="xMidYMid" id="svg-django"><rect fill="#092E20" width="256" height="256" rx="28"/><path d="M186.377012,94.197636 L186.377012,160.424478 C186.377012,183.243286 184.707519,194.187745 179.699037,203.649406 C175.060358,212.741266 168.937684,218.490548 156.323731,224.798721 L129.794937,212.183571 C142.410087,206.247593 148.531564,201.05481 152.427049,193.074749 C156.509231,184.91278 157.808923,175.451119 157.808923,150.593015 L157.808923,94.197636 L186.377012,94.197636 Z M140.928486,50.0787207 L140.928486,182.316986 C126.272844,185.099476 115.512688,186.212472 103.826231,186.212472 C68.9487718,186.212472 50.7686431,170.445031 50.7686431,140.205054 C50.7686431,111.079269 70.0629644,92.1583404 99.9295492,92.1583404 C104.567032,92.1583404 108.091519,92.5281423 112.359199,93.6411381 L112.359199,50.0787207 L140.928486,50.0787207 Z M102.713236,115.160254 C88.243093,115.160254 79.8944275,124.065418 79.8944275,139.647359 C79.8944275,154.860696 87.8720944,163.208164 102.527736,163.208164 C105.680028,163.208164 108.278215,163.022665 112.359199,162.467364 L112.359199,116.643052 C109.020212,115.531253 106.237722,115.160254 102.713236,115.160254 Z M186.377012,50.2307105 L186.377012,79.5419941 L157.808923,79.5419941 L157.808923,50.2307105 L186.377012,50.2307105 Z" fill="#FFFFFD"/></symbol><symbol viewBox="0 0 7.678 7.68" id="svg-figma"><path d="M2.56 7.68A1.28 1.28 0 0 0 3.84 6.4V5.12H2.56a1.28 1.28 0 0 0 0 2.56z" fill="#0acf83"/><path d="M1.28 3.84a1.28 1.28 0 0 1 1.28-1.28h1.28v2.56H2.56a1.28 1.28 0 0 1-1.28-1.28z" fill="#a259ff"/><path d="M1.28 1.28A1.28 1.28 0 0 1 2.559 0h1.28v2.56H2.56a1.28 1.28 0 0 1-1.28-1.28z" fill="#f24e1e"/><path d="M3.84 0h1.28a1.28 1.28 0 0 1 0 2.56H3.84z" fill="#ff7262"/><path d="M6.4 3.84a1.28 1.28 0 0 1-2.56 0 1.28 1.28 0 0 1 2.56 0z" fill="#1abcfe"/></symbol><symbol viewBox="0 0 32 32" id="svg-html"><path fill="#e44f26" d="M5.902 27.201L3.655 2 28.345 2 26.095 27.197 15.985 30 5.902 27.201z"/><path fill="#f1662a" d="M16 27.858L24.17 25.593 26.092 4.061 16 4.061 16 27.858z"/><path fill="#ebebeb" d="M16 13.407L11.91 13.407 11.628 10.242 16 10.242 16 7.151 15.989 7.151 8.25 7.151 8.324 7.981 9.083 16.498 16 16.498 16 13.407zM16 21.434L15.986 21.438 12.544 20.509 12.324 18.044 10.651 18.044 9.221 18.044 9.654 22.896 15.986 24.654 16 24.65 16 21.434z"/><path fill="#fff" d="M15.989 13.407L15.989 16.498 19.795 16.498 19.437 20.507 15.989 21.437 15.989 24.653 22.326 22.896 22.372 22.374 23.098 14.237 23.174 13.407 22.341 13.407 15.989 13.407zM15.989 7.151L15.989 9.071 15.989 10.235 15.989 10.242 23.445 10.242 23.445 10.242 23.455 10.242 23.517 9.548 23.658 7.981 23.732 7.151 15.989 7.151z"/></symbol><symbol viewBox="0 0 32 32" id="svg-python"><defs><linearGradient id="ea" x1="-133.268" y1="-202.91" x2="-133.198" y2="-202.84" gradientTransform="matrix(189.38 0 0 189.81 25243.061 38519.17)" gradientUnits="userSpaceOnUse"><stop offset="0" stop-color="#387eb8"/><stop offset="1" stop-color="#366994"/></linearGradient><linearGradient id="eb" x1="-133.575" y1="-203.203" x2="-133.495" y2="-203.133" gradientTransform="matrix(189.38 0 0 189.81 25309.061 38583.42)" gradientUnits="userSpaceOnUse"><stop offset="0" stop-color="#ffe052"/><stop offset="1" stop-color="#ffc331"/></linearGradient></defs><path d="M15.885,2.1c-7.1,0-6.651,3.07-6.651,3.07V8.36h6.752v1H6.545S2,8.8,2,16.005s4.013,6.912,4.013,6.912H8.33V19.556s-.13-4.013,3.9-4.013h6.762s3.772.06,3.772-3.652V5.8s.572-3.712-6.842-3.712h0ZM12.153,4.237a1.214,1.214,0,1,1-1.183,1.244v-.02a1.214,1.214,0,0,1,1.214-1.214h0Z" fill="url(#ea)"/><path d="M16.085,29.91c7.1,0,6.651-3.08,6.651-3.08V23.65H15.985v-1h9.47S30,23.158,30,15.995s-4.013-6.912-4.013-6.912H23.64V12.4s.13,4.013-3.9,4.013H12.975S9.2,16.356,9.2,20.068V26.2s-.572,3.712,6.842,3.712h.04Zm3.732-2.147A1.214,1.214,0,1,1,21,26.519v.03a1.214,1.214,0,0,1-1.214,1.214h.03Z" fill="url(#eb)"/></symbol><symbol viewBox="0 0 32 32" id="svg-sass"><path d="M16.171,18.7c-.481.221-1.008.509-2.063,1.088-.4.225-.818.45-1.207.662-.027-.027-.055-.061-.082-.089-2.087-2.23-5.947-3.805-5.783-6.8.061-1.091.436-3.955,7.413-7.433,5.742-2.83,10.311-2.046,11.1-.307C26.683,8.3,23.1,12.913,17.17,13.582a4.469,4.469,0,0,1-3.751-.948c-.314-.341-.361-.361-.477-.293-.191.1-.068.409,0,.586a3.5,3.5,0,0,0,2.141,1.684,11.4,11.4,0,0,0,6.956-.689c3.594-1.391,6.4-5.258,5.578-8.5-.825-3.287-6.281-4.371-11.443-2.537a26,26,0,0,0-8.79,5.047c-2.844,2.66-3.294,4.972-3.11,5.94.662,3.437,5.4,5.674,7.3,7.331-.1.055-.184.1-.259.143-.948.471-4.562,2.36-5.463,4.358-1.023,2.264.164,3.887.948,4.105a5.832,5.832,0,0,0,6.281-2.544,6.3,6.3,0,0,0,.559-5.8,5.03,5.03,0,0,1,.716-.477c.484-.286.945-.568,1.354-.786l0,0a10.475,10.475,0,0,1,4.475-.989c3.246.382,3.887,2.407,3.764,3.26a2.157,2.157,0,0,1-1.03,1.459c-.225.143-.3.191-.28.293.027.15.136.143.327.116a2.535,2.535,0,0,0,1.766-2.257c.1-2-1.807-4.194-5.183-4.174a7.753,7.753,0,0,0-2.946.587q-.225.093-.437.2Zm-4.825,7.839c-1.078,1.173-2.578,1.616-3.226,1.241-.7-.4-.423-2.135.9-3.376a17.18,17.18,0,0,1,2.53-1.889c.157-.1.389-.232.668-.4.048-.027.075-.041.075-.041l.164-.1A4.658,4.658,0,0,1,11.346,26.539Z" fill="#cd6799"/></symbol><symbol viewBox="0 0 0 0" id="svg-skills"/></svg>