<svg>

    <symbol viewBox="0 0 32 32" id="html">
        <path style="fill:#e44f26" d="M5.902 27.201 3.655 2h24.69l-2.25 25.197L15.985 30 5.902 27.201z"/>
        <path style="fill:#f1662a" d="m16 27.858 8.17-2.265 1.922-21.532H16v23.797z"/>
        <path style="fill:#ebebeb" d="M16 13.407h-4.09l-.282-3.165H16V7.151H8.25l.074.83.759 8.517H16v-3.091zM16 21.434l-.014.004-3.442-.929-.22-2.465H9.221l.433 4.852 6.332 1.758.014-.004v-3.216z"/>
        <path style="fill:#fff" d="M15.989 13.407v3.091h3.806l-.358 4.009-3.448.93v3.216l6.337-1.757.046-.522.726-8.137.076-.83H15.989zM15.989 7.151V10.242h7.466l.062-.694.141-1.567.074-.83h-7.743z"/>
    </symbol>

    <symbol viewBox="0 0 32 32" id="css">
        <path style="fill:#1572b6" d="M5.902 27.201 3.656 2h24.688l-2.249 25.197L15.985 30 5.902 27.201z"/>
        <path style="fill:#33a9dc" d="m16 27.858 8.17-2.265 1.922-21.532H16v23.797z"/>
        <path style="fill:#fff" d="M16 13.191h4.09l.282-3.165H16V6.935h7.75l-.074.829-.759 8.518H16v-3.091z"/>
        <path style="fill:#ebebeb" d="m16.019 21.218-.014.004-3.442-.93-.22-2.465H9.24l.433 4.853 6.331 1.758.015-.004v-3.216z"/>
        <path style="fill:#fff" d="m19.827 16.151-.372 4.139-3.447.93v3.216l6.336-1.756.047-.522.537-6.007h-3.101z"/>
        <path style="fill:#ebebeb" d="M16.011 6.935v3.091H8.545l-.062-.695-.141-1.567-.074-.829h7.743zM16 13.191v3.091H12.601l-.062-.695-.14-1.567-.074-.829H16z"/>
    </symbol>

    <symbol viewBox="0 0 32 32" id="saas">
       <path d="M16.171 18.7c-.481.221-1.008.509-2.063 1.088-.4.225-.818.45-1.207.662-.027-.027-.055-.061-.082-.089-2.087-2.23-5.947-3.805-5.783-6.8.061-1.091.436-3.955 7.413-7.433 5.742-2.83 10.311-2.046 11.1-.307 1.134 2.479-2.449 7.092-8.379 7.761a4.469 4.469 0 0 1-3.751-.948c-.314-.341-.361-.361-.477-.293-.191.1-.068.409 0 .586a3.5 3.5 0 0 0 2.141 1.684 11.4 11.4 0 0 0 6.956-.689c3.594-1.391 6.4-5.258 5.578-8.5-.825-3.287-6.281-4.371-11.443-2.537a26 26 0 0 0-8.79 5.047c-2.844 2.66-3.294 4.972-3.11 5.94.662 3.437 5.4 5.674 7.3 7.331-.1.055-.184.1-.259.143-.948.471-4.562 2.36-5.463 4.358-1.023 2.264.164 3.887.948 4.105a5.832 5.832 0 0 0 6.281-2.544 6.3 6.3 0 0 0 .559-5.8 5.03 5.03 0 0 1 .716-.477c.484-.286.945-.568 1.354-.786a10.475 10.475 0 0 1 4.475-.989c3.246.382 3.887 2.407 3.764 3.26a2.157 2.157 0 0 1-1.03 1.459c-.225.143-.3.191-.28.293.027.15.136.143.327.116a2.535 2.535 0 0 0 1.766-2.257c.1-2-1.807-4.194-5.183-4.174a7.753 7.753 0 0 0-2.946.587q-.225.093-.437.2zm-4.825 7.839c-1.078 1.173-2.578 1.616-3.226 1.241-.7-.4-.423-2.135.9-3.376a17.18 17.18 0 0 1 2.53-1.889c.157-.1.389-.232.668-.4l.075-.041.164-.1a4.658 4.658 0 0 1-1.111 4.565z" style="fill:#cd6799"/>
    </symbol>

    <symbol viewBox="0 0 7.678 7.68" id="figma">
       <path d="M2.56 7.68A1.28 1.28 0 0 0 3.84 6.4V5.12H2.56a1.28 1.28 0 0 0 0 2.56z" fill="#0acf83"/>
        <path d="M1.28 3.84a1.28 1.28 0 0 1 1.28-1.28h1.28v2.56H2.56a1.28 1.28 0 0 1-1.28-1.28z" fill="#a259ff"/>
        <path d="M1.28 1.28A1.28 1.28 0 0 1 2.559 0h1.28v2.56H2.56a1.28 1.28 0 0 1-1.28-1.28z" fill="#f24e1e"/>
        <path d="M3.84 0h1.28a1.28 1.28 0 0 1 0 2.56H3.84z" fill="#ff7262"/>
        <path d="M6.4 3.84a1.28 1.28 0 0 1-2.56 0 1.28 1.28 0 0 1 2.56 0z" fill="#1abcfe"/>

    </symbol>
    <symbol viewBox="0 0 32 32" id="python">
        <defs><linearGradient id="a" x1="-133.268" y1="-202.91" x2="-133.198" y2="-202.84" gradientTransform="translate(25243.061 38519.17) scale(189.38 189.81)" gradientUnits="userSpaceOnUse"><stop offset="0" stop-color="#387eb8"/><stop offset="1" stop-color="#366994"/></linearGradient>
        <linearGradient id="b" x1="-133.575" y1="-203.203" x2="-133.495" y2="-203.133" gradientTransform="translate(25309.061 38583.42) scale(189.38 189.81)" gradientUnits="userSpaceOnUse"><stop offset="0" stop-color="#ffe052"/><stop offset="1" stop-color="#ffc331"/></linearGradient></defs><title>file_type_python</title>
        <path d="M15.885,2.1c-7.1,0-6.651,3.07-6.651,3.07V8.36h6.752v1H6.545S2,8.8,2,16.005s4.013,6.912,4.013,6.912H8.33V19.556s-.13-4.013,3.9-4.013h6.762s3.772.06,3.772-3.652V5.8s.572-3.712-6.842-3.712h0ZM12.153,4.237a1.214,1.214,0,1,1-1.183,1.244v-.02a1.214,1.214,0,0,1,1.214-1.214h0Z" style="fill:url(#a)"/>
        <path d="M16.085,29.91c7.1,0,6.651-3.08,6.651-3.08V23.65H15.985v-1h9.47S30,23.158,30,15.995s-4.013-6.912-4.013-6.912H23.64V12.4s.13,4.013-3.9,4.013H12.975S9.2,16.356,9.2,20.068V26.2s-.572,3.712,6.842,3.712h.04Zm3.732-2.147A1.214,1.214,0,1,1,21,26.519v.03a1.214,1.214,0,0,1-1.214,1.214h.03Z" style="fill:url(#b)"/>

   </symbol>
    <symbol viewBox="0 0 32 32" id="django">
       <g>
        <rect fill="#092E20" x="0" y="0" width="256" height="256" rx="28"></rect>
        <path d="M186.377012,94.197636 L186.377012,160.424478 C186.377012,183.243286 184.707519,194.187745 179.699037,203.649406 C175.060358,212.741266 168.937684,218.490548 156.323731,224.798721 L129.794937,212.183571 C142.410087,206.247593 148.531564,201.05481 152.427049,193.074749 C156.509231,184.91278 157.808923,175.451119 157.808923,150.593015 L157.808923,94.197636 L186.377012,94.197636 Z M140.928486,50.0787207 L140.928486,182.316986 C126.272844,185.099476 115.512688,186.212472 103.826231,186.212472 C68.9487718,186.212472 50.7686431,170.445031 50.7686431,140.205054 C50.7686431,111.079269 70.0629644,92.1583404 99.9295492,92.1583404 C104.567032,92.1583404 108.091519,92.5281423 112.359199,93.6411381 L112.359199,50.0787207 L140.928486,50.0787207 Z M102.713236,115.160254 C88.243093,115.160254 79.8944275,124.065418 79.8944275,139.647359 C79.8944275,154.860696 87.8720944,163.208164 102.527736,163.208164 C105.680028,163.208164 108.278215,163.022665 112.359199,162.467364 L112.359199,116.643052 C109.020212,115.531253 106.237722,115.160254 102.713236,115.160254 Z M186.377012,50.2307105 L186.377012,79.5419941 L157.808923,79.5419941 L157.808923,50.2307105 L186.377012,50.2307105 Z" fill="#FFFFFD"></path>
    </g>
    </symbol>

</svg>